<svg width="40" height="40" viewBox="0 0 40 40" fill="none" xmlns="http://www.w3.org/2000/svg">
<circle cx="20" cy="20" r="20" fill="#162870"/>
<path fill-rule="evenodd" clip-rule="evenodd" d="M15.8234 24.7954C15.5794 25.0587 15.1681 25.0744 14.9048 24.8304L10.208 20.4786C10.0752 20.3556 9.99977 20.1828 9.99977 20.0018C9.99977 19.8208 10.0752 19.648 10.208 19.525L14.9048 15.1732C15.1681 14.9292 15.5794 14.9449 15.8234 15.2082C16.0674 15.4716 16.0517 15.8828 15.7884 16.1268L11.6061 20.0018L15.7884 23.8768C16.0517 24.1208 16.0674 24.532 15.8234 24.7954Z" fill="white"/>
<path fill-rule="evenodd" clip-rule="evenodd" d="M24.1698 24.7954C24.4138 25.0587 24.825 25.0744 25.0884 24.8304L29.7852 20.4786C29.9179 20.3556 29.9934 20.1828 29.9934 20.0018C29.9934 19.8208 29.9179 19.648 29.7852 19.525L25.0884 15.1732C24.825 14.9292 24.4138 14.9449 24.1698 15.2082C23.9258 15.4716 23.9415 15.8828 24.2048 16.1268L28.387 20.0018L24.2048 23.8768C23.9415 24.1208 23.9258 24.532 24.1698 24.7954Z" fill="white"/>
</svg>
