<svg width="304" height="56" viewBox="0 0 304 56" fill="none" xmlns="http://www.w3.org/2000/svg">
<path d="M303.5 28C303.5 29.7353 302.547 31.4981 300.577 33.2714C298.609 35.0432 295.678 36.7758 291.855 38.4405C284.215 41.7681 273.128 44.7765 259.39 47.3073C231.921 52.3673 193.953 55.5 152 55.5C110.047 55.5 72.0789 52.3673 44.6104 47.3073C30.872 44.7765 19.7851 41.7681 12.1446 38.4405C8.32247 36.7758 5.3909 35.0432 3.42263 33.2714C1.45279 31.4981 0.5 29.7353 0.5 28C0.5 26.2647 1.45279 24.5019 3.42263 22.7286C5.3909 20.9568 8.32247 19.2242 12.1446 17.5595C19.7851 14.2319 30.872 11.2235 44.6104 8.69274C72.0789 3.63274 110.047 0.5 152 0.5C193.953 0.5 231.921 3.63274 259.39 8.69274C273.128 11.2235 284.215 14.2319 291.855 17.5595C295.678 19.2242 298.609 20.9568 300.577 22.7286C302.547 24.5019 303.5 26.2647 303.5 28Z" stroke="#D8E2EA"/>
</svg>
