<svg width="41" height="40" viewBox="0 0 41 40" fill="none" xmlns="http://www.w3.org/2000/svg">
<path d="M0.5 8C0.5 3.58172 4.08172 0 8.5 0H32.5C36.9183 0 40.5 3.58172 40.5 8V32C40.5 36.4183 36.9183 40 32.5 40H8.5C4.08172 40 0.5 36.4183 0.5 32V8Z" fill="#DDE7FF"/>
<path d="M16.9201 13.4855C18.0197 13.5081 19.0907 14.0093 19.8585 15.3396C20.1438 15.8331 20.8558 15.8331 21.1422 15.3396C21.9102 14.0095 22.9813 13.5084 24.0806 13.4855C25.1802 13.4616 26.3058 13.9801 27.0001 14.8145C28.3398 16.4264 28.5109 19.2434 26.5496 21.2169L20.5002 26.4291L14.45 21.2169C12.4898 19.2436 12.6598 16.4264 14.0006 14.8145C14.6949 13.9801 15.8205 13.4616 16.9201 13.4855ZM16.952 12.0012C15.3807 11.9676 13.8557 12.6692 12.8595 13.866C11.0171 16.0818 10.9064 19.7665 13.4027 22.271C13.4159 22.2845 13.4301 22.2973 13.4444 22.3103L20.0166 27.9705C20.2948 28.2094 20.7061 28.2094 20.9841 27.9705L27.5574 22.3103C27.5718 22.2973 27.5848 22.2845 27.598 22.271C30.0943 19.7663 29.9823 16.0818 28.1401 13.866C27.1452 12.669 25.6189 11.9674 24.0484 12.0012C22.7457 12.0281 21.4894 12.752 20.5002 13.9372C19.5113 12.752 18.255 12.0281 16.952 12.0012Z" fill="#0033AA"/>
</svg>
