<svg width="120" height="40" viewBox="0 0 120 40" fill="none" xmlns="http://www.w3.org/2000/svg">
<path d="M0.5 12C0.5 5.37258 5.87258 0 12.5 0H107.5C114.127 0 119.5 5.37258 119.5 12V28C119.5 34.6274 114.127 40 107.5 40H12.5C5.87258 40 0.5 34.6274 0.5 28V12Z" fill="#DDE7FF"/>
<path d="M26.5085 26H27.7885V22.16C27.7885 19.536 27.7725 17.264 27.7405 16.224H27.7885C28.0285 16.896 28.3165 17.616 29.1645 19.648L31.7725 26H32.9085L35.5005 19.664C36.3325 17.648 36.6365 16.896 36.8765 16.224H36.9245C36.8925 17.264 36.8765 19.52 36.8765 22.16V26H38.2525V15.088H36.0285L33.8045 20.48C32.9725 22.432 32.6525 23.28 32.4125 24.064H32.3805C32.1405 23.28 31.8045 22.432 30.9885 20.48L28.7485 15.088H26.5085V26ZM45.8091 22.832C45.8091 24.016 44.9771 25.152 43.6171 25.152C42.5611 25.152 42.0491 24.64 42.0491 23.856C42.0491 22.864 42.8011 22.336 45.8091 22.336V22.832ZM41.6331 20.464C42.2571 19.6 43.0411 19.152 44.0331 19.152C45.3771 19.152 45.8091 19.92 45.8091 20.816V21.344C41.8891 21.344 40.7051 22.368 40.7051 23.904C40.7051 25.296 41.7291 26.208 43.3291 26.208C44.4011 26.208 45.2811 25.696 45.8571 24.896H45.8731L45.9051 26H47.1371C47.1211 25.344 47.0891 24.72 47.0891 22.224V20.784C47.0891 19.168 46.1931 18.096 44.1291 18.096C42.6731 18.096 41.5851 18.768 40.8491 19.712L41.6331 20.464ZM50.8569 22C50.8569 20.208 51.7849 19.184 53.1449 19.184C54.6969 19.184 55.5289 20.464 55.5289 22.144C55.5289 23.936 54.7129 25.136 53.2089 25.136C51.7529 25.136 50.8569 23.952 50.8569 22.304V22ZM50.8889 29.264V26.4C50.8889 25.696 50.8729 25.264 50.8409 24.976H50.8569C51.3529 25.696 52.1849 26.208 53.3369 26.208C55.4329 26.208 56.8889 24.656 56.8889 22.112C56.8889 19.824 55.6569 18.096 53.4009 18.096C52.1689 18.096 51.3049 18.624 50.8409 19.44H50.8249L50.7929 18.304H49.5609C49.5929 19.6 49.6089 20.864 49.6089 22.128V29.264H50.8889ZM69.7686 26V18.304H68.4886V24.96H65.0006V18.304H63.7206V24.96H60.2326V18.304H58.9526V26H69.7686ZM73.6381 22C73.6381 20.208 74.5661 19.184 75.9261 19.184C77.4781 19.184 78.3101 20.464 78.3101 22.144C78.3101 23.936 77.4941 25.136 75.9901 25.136C74.5341 25.136 73.6381 23.952 73.6381 22.304V22ZM73.6701 29.264V26.4C73.6701 25.696 73.6541 25.264 73.6221 24.976H73.6381C74.1341 25.696 74.9661 26.208 76.1181 26.208C78.2141 26.208 79.6701 24.656 79.6701 22.112C79.6701 19.824 78.4381 18.096 76.1821 18.096C74.9501 18.096 74.0861 18.624 73.6221 19.44H73.6061L73.5741 18.304H72.3421C72.3741 19.6 72.3901 20.864 72.3901 22.128V29.264H73.6701ZM83.4656 29.264L87.9936 18.304H86.6016L85.3536 21.536C84.9536 22.528 84.4576 23.936 84.2816 24.528H84.2656C84.0736 23.936 83.5936 22.576 83.1776 21.536L81.9296 18.304H80.4416L83.6416 26.064L82.0896 29.264H83.4656ZM92.3159 26V19.36H94.8759V18.304H88.4759V19.36H91.0359V26H92.3159Z" fill="#0033AA"/>
</svg>
