<svg width="34" height="40" viewBox="0 0 34 40" fill="none" xmlns="http://www.w3.org/2000/svg">
<path d="M0.5 8C0.5 3.58172 4.08172 0 8.5 0H32.5C36.9183 0 40.5 3.58172 40.5 8V32C40.5 36.4183 36.9183 40 32.5 40H8.5C4.08172 40 0.5 36.4183 0.5 32V8Z" fill="#DDE7FF"/>
<path d="M28.921 23.9564C28.8892 23.93 25.2958 21.3584 24.3208 21.527C23.8522 21.6098 23.584 21.929 23.047 22.5692C22.9606 22.6724 22.7524 22.919 22.5916 23.0948C22.2522 22.9842 21.9211 22.8495 21.601 22.6916C19.9483 21.887 18.613 20.5517 17.8084 18.899C17.6505 18.5789 17.5158 18.2478 17.4052 17.9084C17.5816 17.747 17.8288 17.5388 17.9344 17.45C18.571 16.916 18.8902 16.6478 18.973 16.1786C19.1428 15.2072 16.57 11.6108 16.5436 11.5784C16.4264 11.4122 16.2738 11.2742 16.0968 11.1741C15.9198 11.0741 15.7228 11.0146 15.52 11C14.4772 11 11.5 14.8616 11.5 15.5126C11.5 15.5504 11.5546 19.3928 16.2928 24.2126C21.1072 28.9454 24.9496 29 24.9874 29C25.6384 29 29.5 26.0228 29.5 24.98C29.4854 24.7771 29.4259 24.5801 29.3257 24.403C29.2256 24.226 29.0873 24.0734 28.921 23.9564ZM24.9214 27.7964C24.397 27.7532 21.1726 27.3278 17.1412 23.3672C13.1602 19.3142 12.7456 16.0808 12.7042 15.5798C13.4907 14.3454 14.4405 13.223 15.5278 12.2432C15.5518 12.2672 15.5836 12.3032 15.6244 12.35C16.4583 13.4883 17.1766 14.707 17.7688 15.9878C17.5762 16.1815 17.3727 16.364 17.1592 16.5344C16.8281 16.7867 16.5241 17.0726 16.252 17.3876L16.1062 17.5916L16.1494 17.8382C16.2764 18.3882 16.4709 18.9205 16.7284 19.4228C17.6511 21.3176 19.1823 22.8485 21.0772 23.771C21.5794 24.0289 22.1117 24.2236 22.6618 24.3506L22.9084 24.3938L23.1124 24.248C23.4286 23.9747 23.7157 23.6695 23.9692 23.3372C24.157 23.1128 24.4084 22.8134 24.5032 22.7288C25.7877 23.3204 27.0094 24.0396 28.15 24.8756C28.1998 24.9176 28.2346 24.95 28.258 24.971C27.2783 26.0587 26.156 27.0087 24.9214 27.7952V27.7964Z" fill="#0033AA"/>
</svg>
