<svg width="40" height="40" viewBox="0 0 40 40" fill="none" xmlns="http://www.w3.org/2000/svg">
<path d="M0 8C0 3.58172 3.58172 0 8 0H32C36.4183 0 40 3.58172 40 8V32C40 36.4183 36.4183 40 32 40H8C3.58172 40 0 36.4183 0 32V8Z" fill="#DDE7FF"/>
<path d="M24.8461 22.0769C23.6207 22.0769 22.5504 22.7173 21.9356 23.6775L18.229 21.5591C18.4679 21.0883 18.6153 20.5642 18.6153 20C18.6153 19.6518 18.5482 19.3222 18.4526 19.0051L22.3095 16.8015C22.9416 17.4869 23.8402 17.9231 24.8461 17.9231C26.7576 17.9231 28.3076 16.373 28.3076 14.4615C28.3076 12.5501 26.7576 11 24.8461 11C22.9347 11 21.3846 12.5501 21.3846 14.4615C21.3846 14.8098 21.4517 15.1393 21.5472 15.4564L17.6904 17.6607C17.0583 16.9746 16.1597 16.5385 15.1538 16.5385C13.2424 16.5385 11.6923 18.0878 11.6923 20C11.6923 21.9114 13.2424 23.4615 15.1538 23.4615C15.943 23.4615 16.6616 23.1874 17.2439 22.7422L17.2307 22.7692L21.422 25.1646C21.4088 25.2892 21.3846 25.4104 21.3846 25.5385C21.3846 27.4499 22.9347 29 24.8461 29C26.7576 29 28.3076 27.4499 28.3076 25.5385C28.3076 23.627 26.7576 22.0769 24.8461 22.0769ZM24.8461 12.3846C25.9933 12.3846 26.923 13.3144 26.923 14.4615C26.923 15.6087 25.9933 16.5385 24.8461 16.5385C23.6989 16.5385 22.7692 15.6087 22.7692 14.4615C22.7692 13.3144 23.6989 12.3846 24.8461 12.3846ZM15.1538 22.0769C14.0067 22.0769 13.0769 21.1472 13.0769 20C13.0769 18.8529 14.0067 17.9231 15.1538 17.9231C16.3009 17.9231 17.2307 18.8529 17.2307 20C17.2307 21.1472 16.3009 22.0769 15.1538 22.0769ZM24.8461 27.6154C23.6989 27.6154 22.7692 26.6856 22.7692 25.5385C22.7692 24.3913 23.6989 23.4615 24.8461 23.4615C25.9933 23.4615 26.923 24.3913 26.923 25.5385C26.923 26.6856 25.9933 27.6154 24.8461 27.6154Z" fill="#0033AA"/>
</svg>
