<svg width="135" height="40" viewBox="0 0 135 40" fill="none" xmlns="http://www.w3.org/2000/svg">
<path d="M0.5 12C0.5 5.37258 5.87258 0 12.5 0H122.5C129.127 0 134.5 5.37258 134.5 12V28C134.5 34.6274 129.127 40 122.5 40H12.5C5.87258 40 0.5 34.6274 0.5 28V12Z" fill="#162870"/>
<path d="M25.1835 24.224C26.1435 25.584 27.8715 26.24 29.6635 26.24C32.3355 26.24 33.9995 24.96 33.9995 22.976C33.9995 21.584 33.1675 20.656 31.6955 20.336C32.9115 20 33.6475 19.056 33.6475 17.84C33.6475 16.048 32.2395 14.848 29.6475 14.848C27.9355 14.848 26.4955 15.488 25.4395 16.688L26.3195 17.536C27.1195 16.56 28.1595 16.048 29.5995 16.048C31.2795 16.048 32.2075 16.768 32.2075 17.968C32.2075 19.216 31.2795 19.888 29.4235 19.888H27.6795V21.024H29.4555C31.3915 21.024 32.5595 21.6 32.5595 23.04C32.5595 24.416 31.3915 25.04 29.6795 25.04C28.2555 25.04 26.9755 24.48 26.2395 23.408L25.1835 24.224ZM40.7779 22.832C40.7779 24.016 39.9459 25.152 38.5859 25.152C37.5299 25.152 37.0179 24.64 37.0179 23.856C37.0179 22.864 37.7699 22.336 40.7779 22.336V22.832ZM36.6019 20.464C37.2259 19.6 38.0099 19.152 39.0019 19.152C40.3459 19.152 40.7779 19.92 40.7779 20.816V21.344C36.8579 21.344 35.6739 22.368 35.6739 23.904C35.6739 25.296 36.6979 26.208 38.2979 26.208C39.3699 26.208 40.2499 25.696 40.8259 24.896H40.8419L40.8739 26H42.1059C42.0899 25.344 42.0579 24.72 42.0579 22.224V20.784C42.0579 19.168 41.1619 18.096 39.0979 18.096C37.6419 18.096 36.5539 18.768 35.8179 19.712L36.6019 20.464ZM51.1696 26V18.304H44.5776V26H45.8576V19.36H49.8896V26H51.1696ZM60.6284 26V18.304H59.1404L55.0764 24.256V18.304H53.7964V26H55.1084L59.3484 19.808V26H60.6284ZM68.4979 23.552C68.0499 24.592 67.3779 25.12 66.3059 25.12C64.8499 25.12 64.0339 23.856 64.0339 22.144C64.0339 20.24 64.9459 19.184 66.2259 19.184C67.2499 19.184 67.9219 19.744 68.3379 20.736L69.5059 20.176C68.8819 18.816 67.8259 18.096 66.2579 18.096C64.2099 18.096 62.6739 19.568 62.6739 22.176C62.6739 24.736 64.1459 26.208 66.2739 26.208C67.9379 26.208 68.9299 25.44 69.6179 24.016L68.4979 23.552ZM75.981 22.832C75.981 24.016 75.149 25.152 73.789 25.152C72.733 25.152 72.221 24.64 72.221 23.856C72.221 22.864 72.973 22.336 75.981 22.336V22.832ZM71.805 20.464C72.429 19.6 73.213 19.152 74.205 19.152C75.549 19.152 75.981 19.92 75.981 20.816V21.344C72.061 21.344 70.877 22.368 70.877 23.904C70.877 25.296 71.901 26.208 73.501 26.208C74.573 26.208 75.453 25.696 76.029 24.896H76.045L76.077 26H77.309C77.293 25.344 77.261 24.72 77.261 22.224V20.784C77.261 19.168 76.365 18.096 74.301 18.096C72.845 18.096 71.757 18.768 71.021 19.712L71.805 20.464ZM82.5815 26V19.36H85.1415V18.304H78.7415V19.36H81.3015V26H82.5815ZM86.7651 25.936C87.6451 26.064 88.6371 26.128 89.5011 26.128C91.9011 26.128 93.0851 24.976 93.0851 23.36C93.0851 21.744 91.9811 20.72 89.5651 20.72C89.0531 20.72 88.5731 20.72 88.0451 20.736V18.304H86.7651V25.936ZM88.0451 21.776C88.5731 21.76 89.0531 21.76 89.5331 21.76C91.0051 21.76 91.7251 22.256 91.7251 23.376C91.7251 24.496 91.0051 25.072 89.5171 25.072C89.0371 25.072 88.5411 25.04 88.0451 24.96V21.776ZM100.17 23.552C99.7218 24.592 99.0498 25.12 97.9778 25.12C96.5218 25.12 95.7057 23.856 95.7057 22.144C95.7057 20.24 96.6178 19.184 97.8978 19.184C98.9218 19.184 99.5938 19.744 100.01 20.736L101.178 20.176C100.554 18.816 99.4978 18.096 97.9298 18.096C95.8818 18.096 94.3458 19.568 94.3458 22.176C94.3458 24.736 95.8178 26.208 97.9458 26.208C99.6098 26.208 100.602 25.44 101.29 24.016L100.17 23.552ZM109.003 26V18.368C108.075 18.256 106.955 18.176 106.139 18.176C103.723 18.176 102.619 19.2 102.619 20.624C102.619 21.936 103.419 22.64 104.667 22.88L102.075 26H103.643L106.027 23.008H107.723V26H109.003ZM107.723 22C107.243 22.032 106.731 22.032 106.107 22.032C104.651 22.032 103.995 21.584 103.995 20.608C103.995 19.632 104.667 19.216 106.107 19.216C106.555 19.216 107.179 19.248 107.723 19.328V22Z" fill="white"/>
</svg>
