<svg width="24" height="24" viewBox="0 0 24 24" fill="none" xmlns="http://www.w3.org/2000/svg">
<path d="M3 17.0836V18.2133C3 18.5045 3.23611 18.7406 3.52734 18.7406C3.81858 18.7406 4.05469 18.5045 4.05469 18.2133V17.6109H19.9453V18.2133C19.9453 18.5045 20.1814 18.7406 20.4727 18.7406C20.7639 18.7406 21 18.5045 21 18.2133V17.0836V15.3515H3V17.0836Z" fill="#45525B"/>
<path d="M19.0606 10.9078H4.93943C3.87005 10.9078 3 11.7778 3 12.8472V14.2968H21V12.8472C21 11.7778 20.13 10.9078 19.0606 10.9078Z" fill="#45525B"/>
<path d="M10.0231 8.57343C9.53522 8.57343 9.13831 8.9703 9.13831 9.45817V9.85308H14.8617V9.45817C14.8617 8.9703 14.4649 8.57343 13.977 8.57343H10.0231Z" fill="#45525B"/>
<path d="M8.08363 9.45816C8.08363 8.38874 8.95368 7.51873 10.0231 7.51873H13.977C15.0465 7.51873 15.9165 8.38874 15.9165 9.45816V9.85307H18.7407V7.19877C18.7407 6.12935 17.8707 5.25934 16.8012 5.25934H7.19889C6.12947 5.25934 5.25946 6.12935 5.25946 7.19877V9.85307H8.08363V9.45816Z" fill="#45525B"/>
</svg>
