<svg width="24" height="24" viewBox="0 0 24 24" fill="none" xmlns="http://www.w3.org/2000/svg">
<path d="M11.9999 3C7.0294 3 3 7.0294 3 11.9999C3 16.9705 7.0294 21.0001 11.9999 21.0001C16.9705 21.0001 21.0001 16.9705 21.0001 11.9999C20.9945 7.03171 16.9683 3.0056 11.9999 3V3ZM11.9999 4.80005C14.9653 4.79 17.6297 6.60967 18.6995 9.37509C16.5943 8.42752 14.3086 7.9478 11.9999 7.96873C9.6915 7.9478 7.40579 8.42752 5.30054 9.37509C6.37039 6.60967 9.03479 4.79 11.9999 4.80005ZM10.5178 19.0458C7.38453 18.3767 5.06702 15.7227 4.82642 12.5278C7.51406 12.5278 10.5178 16.1063 10.5178 19.0458ZM11.9999 13.3499C11.2544 13.3499 10.6499 12.7456 10.6499 11.9999C10.6499 11.2544 11.2544 10.6499 11.9999 10.6499C12.7456 10.6499 13.3499 11.2544 13.3499 11.9999C13.3499 12.7456 12.7456 13.3499 11.9999 13.3499ZM13.4823 19.0458C13.4823 16.1063 16.486 12.5278 19.1738 12.5278C18.933 15.7227 16.6155 18.3767 13.4823 19.0458Z" fill="#162870"/>
</svg>
