<svg width="24" height="24" viewBox="0 0 24 24" fill="none" xmlns="http://www.w3.org/2000/svg">
<path d="M21 13.4414C21 10.7044 19.5293 8.19571 17.151 6.85453C16.8162 6.26081 16.3984 5.709 15.9033 5.21386C14.4757 3.78623 12.5776 3 10.5586 3C8.53961 3 6.64148 3.78623 5.21386 5.21386C3.78623 6.64148 3 8.53961 3 10.5586C3 11.7871 3.30041 13.0011 3.87036 14.0818L3.23737 17.8798L6.92066 17.2659C8.27709 19.5767 10.7487 21 13.4414 21C14.6699 21 15.8839 20.6996 16.9647 20.1296L20.7626 20.7626L20.1296 16.9646C20.6996 15.8839 21 14.6699 21 13.4414ZM10.5586 17.0625C9.44709 17.0625 8.3498 16.777 7.38539 16.2367L7.22374 16.1462L4.52044 16.5968L4.97096 13.8934L4.88044 13.7318C4.34023 12.7674 4.05469 11.6701 4.05469 10.5586C4.05469 6.97234 6.97234 4.05469 10.5586 4.05469C14.1449 4.05469 17.0625 6.97234 17.0625 10.5586C17.0625 14.1448 14.1449 17.0625 10.5586 17.0625Z" fill="#BCC5CC"/>
<path d="M13.6518 8.31275C12.9197 7.58069 11.7328 7.58069 11.0008 8.31275L10.5589 8.75456L10.1171 8.31272C9.385 7.58066 8.19809 7.58066 7.46604 8.31272C6.73398 9.04477 6.73398 10.2317 7.46604 10.9637L10.5589 14.0566L13.6518 10.9638C14.3838 10.2317 14.3838 9.04481 13.6518 8.31275Z" fill="#BCC5CC"/>
</svg>
