<svg width="24" height="24" viewBox="0 0 24 24" fill="none" xmlns="http://www.w3.org/2000/svg">
<path d="M15.375 3H5.25C4.00912 3 3 4.00912 3 5.25V12C3 13.2409 4.00912 14.25 5.25 14.25V17.0625C5.25 17.2819 5.37825 17.4821 5.57737 17.5733C5.65275 17.6081 5.73263 17.625 5.8125 17.625C5.94412 17.625 6.07463 17.5789 6.17813 17.49L9.95813 14.25H15.375C16.6159 14.25 17.625 13.2409 17.625 12V5.25C17.625 4.00912 16.6159 3 15.375 3Z" fill="#B5B7C0"/>
<path d="M18.7499 6.375V12C18.7499 13.8608 17.2356 15.375 15.3749 15.375H10.3743L7.90039 17.4945C8.12989 17.5732 8.37064 17.625 8.62489 17.625H14.0418L17.8206 20.865C17.9252 20.9539 18.0557 21 18.1874 21C18.2672 21 18.3482 20.9831 18.4225 20.9483C18.6227 20.8571 18.7499 20.6569 18.7499 20.4375V17.625C19.9907 17.625 20.9999 16.6159 20.9999 15.375V8.625C20.9999 7.38412 19.9907 6.375 18.7499 6.375Z" fill="#B5B7C0"/>
</svg>
