<svg width="25" height="24" viewBox="0 0 25 24" fill="none" xmlns="http://www.w3.org/2000/svg">
<path d="M21.0838 14.367L19.1848 12.8775C19.2208 12.5895 19.2478 12.297 19.2478 12C19.2478 11.703 19.2208 11.4105 19.1848 11.1225L21.0883 9.63297C21.2593 9.49797 21.3088 9.25497 21.1963 9.05698L19.3963 5.93848C19.2838 5.74497 19.0498 5.66397 18.8473 5.74497L16.6063 6.64947C16.1428 6.29396 15.6343 5.99248 15.0853 5.76298L14.7478 3.378C14.7073 3.16651 14.5228 3 14.2978 3H10.6978C10.4729 3 10.2883 3.16651 10.2523 3.378L9.91484 5.76298C9.36586 5.99248 8.85733 6.28948 8.39386 6.64947L6.15286 5.74497C5.95036 5.66848 5.71635 5.74497 5.60388 5.93848L3.80382 9.05698C3.69131 9.25049 3.74084 9.49349 3.91182 9.63297L5.81081 11.1225C5.77482 11.4105 5.74782 11.703 5.74782 12C5.74782 12.297 5.77482 12.5895 5.81081 12.8775L3.91182 14.367C3.74084 14.502 3.69131 14.745 3.80382 14.943L5.60383 18.0615C5.71635 18.255 5.95032 18.336 6.15282 18.255L8.39382 17.3505C8.85733 17.706 9.36582 18.0075 9.9148 18.237L10.2523 20.622C10.2883 20.8334 10.4728 21 10.6978 21H14.2978C14.5228 21 14.7073 20.8334 14.7433 20.622L15.0808 18.237C15.6298 18.0075 16.1383 17.7105 16.6018 17.3505L18.8428 18.255C19.0453 18.3315 19.2793 18.255 19.3918 18.0615L21.1918 14.943C21.3043 14.7495 21.2548 14.5065 21.0838 14.367ZM12.4978 15.15C10.7563 15.15 9.3478 13.7415 9.3478 12C9.3478 10.2585 10.7563 8.85001 12.4978 8.85001C14.2393 8.85001 15.6478 10.2585 15.6478 12C15.6478 13.7415 14.2393 15.15 12.4978 15.15Z" fill="black"/>
</svg>
