<svg width="24" height="24" viewBox="0 0 24 24" fill="none" xmlns="http://www.w3.org/2000/svg">
<path fill-rule="evenodd" clip-rule="evenodd" d="M17.3934 2.67061L14.7198 2.66666C11.7162 2.66666 9.77506 4.50196 9.77506 7.34258V9.4985H7.0869C6.85461 9.4985 6.6665 9.67205 6.6665 9.88611V13.0098C6.6665 13.2239 6.85482 13.3972 7.0869 13.3972H9.77506V21.2792C9.77506 21.4933 9.96317 21.6667 10.1955 21.6667H13.7027C13.935 21.6667 14.1231 21.4931 14.1231 21.2792V13.3972H17.2662C17.4985 13.3972 17.6866 13.2239 17.6866 13.0098L17.6879 9.88611C17.6879 9.78333 17.6435 9.68489 17.5648 9.61215C17.4861 9.53941 17.3788 9.4985 17.2673 9.4985H14.1231V7.6709C14.1231 6.79248 14.3503 6.34656 15.5919 6.34656L17.393 6.34596C17.6251 6.34596 17.8132 6.17241 17.8132 5.95854V3.05803C17.8132 2.84436 17.6253 2.67101 17.3934 2.67061Z" fill="#8D8E8F"/>
</svg>
