<svg width="24" height="24" viewBox="0 0 24 24" fill="none" xmlns="http://www.w3.org/2000/svg">
<path d="M7.85375 15.8021C7.11515 13.0195 6.37965 10.2368 5.64725 7.45413H5.64415C5.29094 7.75502 4.85037 7.91822 4.39659 7.91627C4.34694 7.91627 4.29728 7.91299 4.25073 7.90972L7.59307 20.5481C7.68 20.8763 8.00203 21.0684 8.31305 20.9774L8.59546 20.8922C8.74423 20.8486 8.87042 20.7443 8.94614 20.6022C9.02185 20.4601 9.04084 20.292 8.9989 20.1351L7.85375 15.8021Z" fill="#45525B"/>
<path d="M20.9158 11.5151C19.7791 10.9181 18.7281 10.1546 17.7938 9.24698C17.715 9.17211 17.6836 9.05625 17.7131 8.94872C18.1776 7.0954 18.5218 5.21079 18.7434 3.308C18.7807 2.99335 18.6162 2.90158 18.4486 3.1179C15.2707 7.12966 9.88949 2.81308 6.4075 5.67769C6.41265 5.71347 6.41473 5.74967 6.4137 5.78585C6.41409 6.16424 6.31758 6.5357 6.1344 6.8609L6.24612 7.27715C6.94128 9.9156 7.63954 12.5551 8.3409 15.1958C11.7919 11.4757 17.5238 16.3921 20.8475 12.1902C21.0182 11.9739 21.0523 11.5773 20.9158 11.5151Z" fill="#45525B"/>
<path d="M4.39652 7.26077C5.1678 7.26077 5.79304 6.60043 5.79304 5.78586C5.79304 4.97128 5.1678 4.31094 4.39652 4.31094C3.62524 4.31094 3 4.97128 3 5.78586C3 6.60043 3.62524 7.26077 4.39652 7.26077Z" fill="#45525B"/>
</svg>
