<svg width="24" height="24" viewBox="0 0 24 24" fill="none" xmlns="http://www.w3.org/2000/svg">
<path d="M20.6977 11.0467L12.6217 3.6879C12.2672 3.36485 11.7327 3.36488 11.3783 3.68786L3.30227 11.0468C3.01832 11.3055 2.92452 11.7042 3.06325 12.0624C3.20201 12.4206 3.53986 12.652 3.92401 12.652H5.21389V20.025C5.21389 20.3173 5.45091 20.5544 5.74324 20.5544H10.1699C10.4622 20.5544 10.6992 20.3174 10.6992 20.025V15.5484H13.3009V20.025C13.3009 20.3174 13.5379 20.5544 13.8302 20.5544H18.2567C18.549 20.5544 18.786 20.3174 18.786 20.025V12.652H20.0761C20.4602 12.652 20.7981 12.4206 20.9369 12.0624C21.0754 11.7041 20.9817 11.3055 20.6977 11.0467Z" fill="#B5B7C0"/>
<path d="M18.6477 4.5022H15.0928L19.1771 8.21596V5.03151C19.1771 4.73919 18.9401 4.5022 18.6477 4.5022Z" fill="#B5B7C0"/>
</svg>
