<svg width="24" height="24" viewBox="0 0 24 24" fill="none" xmlns="http://www.w3.org/2000/svg">
<g clip-path="url(#clip0_316:2680)">
<path d="M18.375 6.37476C16.7934 6.37476 15.3647 7.02726 14.3428 8.07772L12.9806 9.47788L14.4534 10.9915L15.8559 9.5496C16.4948 8.89288 17.3883 8.48413 18.375 8.48413C20.3133 8.48413 21.8906 10.0615 21.8906 12.0002C21.8906 13.9385 20.3133 15.5159 18.375 15.5159C17.3883 15.5159 16.4948 15.1071 15.8559 14.4499C10.3464 8.78629 9.66534 8.08612 9.65719 8.07772C8.63531 7.02726 7.20656 6.37476 5.625 6.37476C2.51859 6.37476 0 8.89335 0 12.0002C0 15.1066 2.51859 17.6252 5.625 17.6252C7.20656 17.6252 8.63531 16.9727 9.65719 15.9223L11.0194 14.5221L9.54656 13.0085L8.14406 14.4499C7.50516 15.1071 6.61172 15.5159 5.625 15.5159C3.68672 15.5159 2.10938 13.9385 2.10938 12.0002C2.10938 10.0615 3.68672 8.48413 5.625 8.48413C6.61172 8.48413 7.50516 8.89288 8.14406 9.5496C8.38552 9.79785 14.2849 15.8627 14.3428 15.9223C15.3647 16.9727 16.7934 17.6252 18.375 17.6252C21.4814 17.6252 24 15.1066 24 12.0002C24 8.89335 21.4814 6.37476 18.375 6.37476V6.37476Z" fill="#F2F2F2"/>
</g>
<defs>
<clipPath id="clip0_316:2680">
<rect width="24" height="24" fill="white"/>
</clipPath>
</defs>
</svg>
