<svg width="17" height="24" viewBox="0 0 17 24" fill="none" xmlns="http://www.w3.org/2000/svg">
<path d="M6.70509 15.981V3H5.8406C4.56696 3 3.53076 4.0362 3.53076 5.30984V16.7145C4.0599 16.2579 4.74801 15.981 5.50004 15.981H6.70509V15.981Z" fill="black"/>
<path d="M17.4911 11.9631C17.6046 11.9631 17.7172 11.9672 17.8288 11.9747V3H7.75732V15.981H12.5648C13.0338 13.6909 15.0644 11.9631 17.4911 11.9631ZM10.9523 6.09976H14.4757V7.15252H10.9523V6.09976ZM9.76218 8.38527H15.6658V9.43802H9.76218V8.38527Z" fill="black"/>
<path d="M13.1506 19.5266H6.19828V18.4739H12.6862C12.5421 18.0078 12.4641 17.5131 12.4632 17.0005H5.49976C4.39708 17.0005 3.5 17.8976 3.5 19.0002C3.5 20.1029 4.39708 21 5.49976 21H14.4596C13.9326 20.6004 13.4866 20.0996 13.1506 19.5266Z" fill="black"/>
<path d="M17.4911 12.9826C15.2807 12.9826 13.4824 14.7809 13.4824 16.9913C13.4824 19.2017 15.2807 21 17.4911 21C19.7015 21 21.4998 19.2017 21.4998 16.9913C21.4998 14.7809 19.7015 12.9826 17.4911 12.9826ZM17.4908 14.5914C17.7864 14.5914 18.0053 14.8331 18.0181 15.1188C18.0309 15.4036 17.7666 15.6461 17.4908 15.6461C17.1951 15.6461 16.9762 15.4045 16.9634 15.1188C16.9507 14.834 17.2149 14.5914 17.4908 14.5914ZM18.0193 19.0465H16.9646V16.3466H18.0193V19.0465Z" fill="black"/>
</svg>
