<svg width="24" height="24" viewBox="0 0 24 24" fill="none" xmlns="http://www.w3.org/2000/svg">
<path fill-rule="evenodd" clip-rule="evenodd" d="M12.0001 3.68234C14.7092 3.68234 15.0305 3.69249 16.101 3.74153C18.8507 3.86667 20.135 5.17134 20.2602 7.90075C20.3092 8.97036 20.3185 9.29167 20.3185 12.0008C20.3185 14.7107 20.3084 15.0312 20.2602 16.1008C20.1342 18.8277 18.8532 20.1349 16.101 20.26C15.0305 20.3091 14.7109 20.3192 12.0001 20.3192C9.29097 20.3192 8.96966 20.3091 7.90005 20.26C5.14358 20.1341 3.86597 18.8235 3.74083 16.1C3.69179 15.0304 3.68164 14.7099 3.68164 11.9999C3.68164 9.29082 3.69263 8.97036 3.74083 7.89991C3.86681 5.17134 5.14781 3.86583 7.90005 3.74068C8.97051 3.69249 9.29097 3.68234 12.0001 3.68234ZM12.0001 7.20734C9.35331 7.20734 7.20742 9.35323 7.20742 12C7.20742 14.6468 9.35331 16.7935 12.0001 16.7935C14.6469 16.7935 16.7928 14.6476 16.7928 12C16.7928 9.35323 14.6469 7.20734 12.0001 7.20734ZM12.0001 15.1111C10.282 15.1111 8.88897 13.7189 8.88897 12C8.88897 10.2819 10.282 8.8889 12.0001 8.8889C13.7182 8.8889 15.1112 10.2819 15.1112 12C15.1112 13.7189 13.7182 15.1111 12.0001 15.1111ZM16.9825 5.89834C16.3634 5.89834 15.8618 6.40001 15.8618 7.01834C15.8618 7.63668 16.3634 8.13834 16.9825 8.13834C17.6009 8.13834 18.1018 7.63668 18.1018 7.01834C18.1018 6.40001 17.6009 5.89834 16.9825 5.89834Z" fill="#8D8E8F"/>
</svg>
