<svg width="24" height="24" viewBox="0 0 24 24" fill="none" xmlns="http://www.w3.org/2000/svg">
<path d="M18.4571 19.9414L11.3774 16.1929C11.1929 16.095 10.9679 16.1085 10.7936 16.2267L5.38006 19.9751C5.17756 20.1158 5.08981 20.3711 5.16406 20.6063C5.23606 20.8391 5.45431 21 5.69956 21H18.1927C18.4503 21 18.6764 20.8245 18.7383 20.5725C18.8013 20.3216 18.6843 20.0618 18.4571 19.9414Z" fill="#B5B7C0"/>
<path d="M20.8264 18.8726L19.1614 11.3767C19.1209 11.1934 18.9915 11.0437 18.8171 10.9751C18.6416 10.9065 18.4448 10.9301 18.2918 11.0359L12.8771 14.7844C12.7151 14.8969 12.624 15.0847 12.6364 15.2794C12.6476 15.4762 12.7612 15.6517 12.9345 15.7429L20.013 19.4914C20.0963 19.5352 20.1863 19.5577 20.2763 19.5577C20.3966 19.5577 20.517 19.5195 20.6171 19.4419C20.7915 19.3091 20.8736 19.0875 20.8264 18.8726Z" fill="#B5B7C0"/>
<path d="M16.9091 10.1449C16.8349 9.90975 16.6178 9.75 16.3714 9.75H11.2369C10.3031 11.4409 8.92163 13.0575 8.35351 13.6897C8.03401 14.0452 7.57613 14.25 7.09801 14.25C6.61988 14.25 6.16201 14.0452 5.84251 13.6897C5.62313 13.4456 5.28338 13.0553 4.89413 12.5715L3.53288 18.6983C3.48338 18.9244 3.57676 19.1573 3.76801 19.2866C3.86251 19.3507 3.97276 19.3822 4.08188 19.3822C4.19438 19.3822 4.30576 19.3496 4.40251 19.2821L16.6909 10.7737C16.8945 10.6354 16.9811 10.38 16.9091 10.1449Z" fill="#B5B7C0"/>
<path d="M7.09815 3C4.92689 3 3.16064 4.76625 3.16064 6.9375C3.16064 8.958 6.31964 12.5366 6.67964 12.9382C6.78652 13.0564 6.9384 13.125 7.09815 13.125C7.25789 13.125 7.40977 13.0564 7.51664 12.9382C7.87664 12.5366 11.0356 8.958 11.0356 6.9375C11.0356 4.76625 9.2694 3 7.09815 3ZM7.09815 8.625C6.16664 8.625 5.41064 7.869 5.41064 6.9375C5.41064 6.006 6.16664 5.25 7.09815 5.25C8.02964 5.25 8.78565 6.006 8.78565 6.9375C8.78565 7.869 8.02964 8.625 7.09815 8.625Z" fill="#B5B7C0"/>
</svg>
