<svg width="24" height="24" viewBox="0 0 24 24" fill="none" xmlns="http://www.w3.org/2000/svg">
<path d="M21.2858 2C21.1748 1.99996 21.0654 2.02574 20.9661 2.07533L15.5534 4.78245L9.43275 2.06177C9.42275 2.0575 9.41133 2.05675 9.40061 2.05248C9.37307 2.04219 9.34491 2.03361 9.31632 2.02679C9.2879 2.01913 9.25903 2.01314 9.2299 2.00891C9.17189 2.00414 9.11359 2.00414 9.05563 2.00891C9.0265 2.01314 8.99762 2.01913 8.9692 2.02679C8.94062 2.03361 8.91245 2.04219 8.88491 2.05248C8.8742 2.05675 8.86277 2.05746 8.85277 2.06177L2.4243 4.91889C2.16624 5.03348 1.99996 5.28936 2 5.57169V21.2858C2.00013 21.5274 2.12238 21.7526 2.32498 21.8843C2.52763 22.0162 2.78322 22.0367 3.00424 21.9386L9.14272 19.2101L15.2812 21.9386C15.2919 21.9429 15.3033 21.9386 15.3141 21.945C15.487 22.0224 15.6855 22.018 15.8547 21.9329C15.8662 21.9279 15.879 21.9329 15.8904 21.925L21.6046 19.0679C21.8468 18.9469 21.9997 18.6994 21.9996 18.4286V2.71462C21.9999 2.32013 21.6802 2.00017 21.2858 2ZM8.42847 17.9644L3.42854 20.1865V6.036L8.42847 3.81387V17.9644ZM14.8569 20.1865L9.85701 17.9644V3.81387L14.8569 6.03596V20.1865ZM20.5711 17.9872L16.2855 20.1301V6.01311L20.5711 3.87028V17.9872Z" fill="#BCC5CC"/>
</svg>
