<svg width="24" height="24" viewBox="0 0 24 24" fill="none" xmlns="http://www.w3.org/2000/svg">
<path fill-rule="evenodd" clip-rule="evenodd" d="M14.0396 16.2317C15.0697 16.0061 16.0537 15.6141 16.948 15.0727C17.6218 14.6387 17.8027 13.7613 17.3519 13.1126C16.9189 12.4888 16.0561 12.3006 15.3847 12.6825C13.3247 13.9231 10.7071 13.9231 8.64703 12.6825C7.96276 12.2672 7.05955 12.4647 6.62733 13.122C6.62733 13.1235 6.62733 13.1251 6.62571 13.1259C6.19431 13.7847 6.39951 14.655 7.08378 15.0704L7.0854 15.072C7.97811 15.6125 8.9613 16.0053 9.99053 16.2293L7.19123 18.9244C6.62006 19.465 6.60956 20.3478 7.16861 20.8978L7.19285 20.9211C7.47076 21.1964 7.84723 21.3333 8.22209 21.3333C8.59775 21.3333 8.97341 21.1964 9.25213 20.9211L12.0159 18.2734L14.7659 20.9226C15.3476 21.4632 16.2766 21.4484 16.8389 20.8876C17.3867 20.3408 17.3867 19.4736 16.8389 18.9276L14.0396 16.2317ZM12.0159 12.3022C14.7788 12.2991 17.0167 10.1445 17.0207 7.48519C17.0207 4.82897 14.7748 2.66666 12.0159 2.66666C9.25698 2.66666 7.01107 4.82897 7.01107 7.48675C7.01511 10.1469 9.25375 12.3014 12.0159 12.3029V12.3022ZM12.0159 5.49089C13.1598 5.49244 14.0865 6.38537 14.0873 7.48597C14.0873 8.58735 13.1598 9.4795 12.0159 9.48105C10.8727 9.4795 9.9461 8.58813 9.94368 7.48675C9.94529 6.38459 10.8727 5.49244 12.0159 5.49011V5.49089Z" fill="#8D8E8F"/>
</svg>
