<svg width="40" height="40" viewBox="0 0 40 40" fill="none" xmlns="http://www.w3.org/2000/svg">
<path d="M20 0C12.0121 0 5.51352 6.49859 5.51352 14.4864C5.51352 24.3995 18.4775 38.9526 19.0295 39.5673C19.5479 40.1447 20.4531 40.1437 20.9706 39.5673C21.5225 38.9526 34.4865 24.3995 34.4865 14.4864C34.4863 6.49859 27.9878 0 20 0ZM20 21.7749C15.9811 21.7749 12.7116 18.5053 12.7116 14.4864C12.7116 10.4675 15.9812 7.19797 20 7.19797C24.0188 7.19797 27.2884 10.4676 27.2884 14.4865C27.2884 18.5054 24.0188 21.7749 20 21.7749Z" fill="#42518A"/>
</svg>
