<svg width="25" height="24" viewBox="0 0 25 24" fill="none" xmlns="http://www.w3.org/2000/svg">
<path d="M20.4249 14.7032C19.499 13.7766 18.2142 13.3841 16.5642 13.8263L10.6806 7.9366L10.7583 7.64255C11.0972 6.37109 10.731 5.00439 9.80306 4.07641C8.8582 3.13081 7.51495 2.78385 6.24458 3.13281C6.06342 3.18256 5.92241 3.32491 5.87442 3.50656C5.82643 3.68821 5.87906 3.88129 6.01185 4.01414L7.42854 5.43084C7.84272 5.84603 7.83867 6.51098 7.42956 6.92118C7.02368 7.32815 6.34144 7.32751 5.93718 6.9222L4.5202 5.50512C4.38735 5.37219 4.19371 5.32006 4.01206 5.36833C3.83037 5.41656 3.68855 5.55792 3.63898 5.73926C3.29511 6.99567 3.63339 8.34726 4.58278 9.29665C5.50831 10.2228 6.79147 10.6168 8.44245 10.1737L14.3266 16.0633C13.8875 17.7128 14.2663 18.9852 15.2046 19.9235C16.1507 20.8703 17.4945 21.2147 18.7621 20.8669C18.9433 20.8171 19.0844 20.6748 19.1324 20.4931C19.1804 20.3115 19.1278 20.1183 18.995 19.9855L17.5786 18.5691C17.1644 18.1539 17.1685 17.4889 17.5776 17.0787C17.9885 16.6699 18.6693 16.6764 19.07 17.0782L20.487 18.4949C20.6199 18.6278 20.8135 18.6799 20.9952 18.6316C21.1768 18.5833 21.3186 18.4421 21.3682 18.2608C21.7121 17.0046 21.3739 15.6526 20.4249 14.7032Z" fill="black"/>
<path d="M9.14408 12.3721L4.11702 17.3998C3.29433 18.2225 3.29433 19.5603 4.11702 20.383C4.93971 21.2057 6.27755 21.2057 7.1002 20.383L12.1272 15.3554L9.14408 12.3721ZM6.60478 18.7464C6.39876 18.9524 6.06513 18.9524 5.85912 18.7464C5.65314 18.5404 5.65314 18.2067 5.85912 18.0008L9.05763 14.8016C9.26361 14.5957 9.59735 14.5957 9.8033 14.8016C10.0093 15.0076 10.0093 15.3413 9.8033 15.5473L6.60478 18.7464Z" fill="black"/>
<path d="M21.3453 4.06359L20.4362 3.15448C20.2651 2.98338 19.9996 2.95068 19.7921 3.0751L16.9955 4.75286C16.7012 4.92938 16.6513 5.33533 16.8939 5.57794L17.1165 5.80048L13.5664 9.33604L15.0583 10.8279L18.6083 7.29234L18.9219 7.60597C19.1645 7.84851 19.5705 7.79859 19.747 7.50433L21.4247 4.70776C21.5491 4.50023 21.5164 4.23469 21.3453 4.06359Z" fill="black"/>
</svg>
