<svg width="18" height="16" viewBox="0 0 18 16" fill="none" xmlns="http://www.w3.org/2000/svg">
<path d="M17.2898 6.05931C17.18 5.72184 16.8807 5.4829 16.528 5.45099L11.7168 5.0142L9.81538 0.562626C9.675 0.235574 9.35558 0.0244904 9.00004 0.0244904C8.64451 0.0244904 8.32496 0.235574 8.18546 0.562626L6.28406 5.0142L1.47212 5.45099C1.11938 5.48354 0.820686 5.72247 0.710313 6.05931C0.600575 6.39679 0.70192 6.76695 0.968699 7.00093L4.60556 10.1899L3.53324 14.9129C3.45478 15.2601 3.58957 15.6192 3.87771 15.8275C4.03259 15.9401 4.21455 15.9963 4.39715 15.9963C4.55407 15.9963 4.71111 15.9545 4.85136 15.8706L9.00004 13.39L13.148 15.8706C13.4522 16.0525 13.8349 16.0358 14.1224 15.8275C14.4105 15.6192 14.5453 15.2601 14.4668 14.9129L13.3945 10.1899L17.0314 7.00093C17.298 6.76695 17.3995 6.39756 17.2898 6.05931Z" fill="#162870"/>
</svg>
