<svg width="24" height="24" viewBox="0 0 24 24" fill="none" xmlns="http://www.w3.org/2000/svg">
<path fill-rule="evenodd" clip-rule="evenodd" d="M12.3991 17.7912C12.3443 17.8464 12.3443 17.8464 12.2894 17.9015C10.151 20.0489 10.0369 20.1562 9.50565 20.1562C9.0126 20.1562 8.69762 19.906 8.41891 19.53C8.3065 19.3784 8.22492 19.235 8.13493 19.0376L6.04639 13.2569L6.05078 13.1692L2.38414 11.9744C2.38414 11.9744 1.8667 11.7642 2.03291 11.2876C2.06723 11.1891 2.13633 11.1056 2.34334 10.9613C3.30398 10.2918 20.1237 4.24631 20.1237 4.24631C20.1237 4.24631 20.5987 4.08643 20.8792 4.19272C21.0075 4.24134 21.0894 4.29629 21.1585 4.49697C21.1835 4.56999 21.1978 4.7252 21.1961 4.87966C21.1947 4.99092 21.1809 5.09419 21.171 5.25603C21.0684 6.90889 18.0034 19.2446 18.0034 19.2446C18.0034 19.2446 17.8201 19.9665 17.1629 19.9912C16.9233 20.0001 16.6324 19.9514 16.2848 19.6524C15.6651 19.1194 14.3141 18.1508 12.9683 17.2153C12.7757 17.4112 12.5853 17.6039 12.3991 17.7912ZM11.4637 16.1798C10.6035 15.593 9.88327 15.1096 9.55321 14.8888C9.49781 14.8518 9.48185 14.8035 9.47236 14.7563C9.45851 14.6869 9.53394 14.6008 9.53394 14.6008L16.217 8.26282C16.217 8.26282 10.3003 11.465 7.86826 12.8353L7.86072 12.9861L9.65546 17.9662C10.0073 17.6344 10.4699 17.1799 11.015 16.6324C11.0691 16.5781 11.0691 16.5781 11.1232 16.5236C11.2352 16.4109 11.3489 16.2961 11.4637 16.1798Z" fill="#8D8E8F"/>
</svg>
