<svg width="118" height="10" viewBox="0 0 118 10" fill="none" xmlns="http://www.w3.org/2000/svg">
<path d="M2.20455 1.45183L6.68212 9.51153H11.858L16.2534 1.45183H18.458V0H11.8306V1.45183H13.7476L10.5435 7.327L7.29829 1.45183H9.62608V0H0V1.45183H2.20455Z" fill="black"/>
<path d="M35.2771 0C30.8269 0 28.458 2.1981 28.458 4.96608C28.458 7.76119 30.731 10 35.3044 10C39.8779 10 42.1235 7.76119 42.1235 4.96608C42.1235 2.1981 39.7272 0 35.2771 0ZM35.236 8.49389C33.6065 8.46676 32.8945 6.67571 32.9219 4.91181C32.9493 3.08005 33.8393 1.47897 35.3592 1.50611C36.8791 1.53324 37.687 3.16147 37.6596 4.99322C37.6185 6.71642 36.9065 8.52103 35.236 8.49389Z" fill="black"/>
<path d="M52.1371 1.45183V0H61.0101V1.45183H58.7918V8.03256H60.8458C62.7491 8.03256 63.9814 6.79783 63.9814 5.10176H65.4466V9.51153H52.1234V8.03256H54.3554V1.45183H52.1371Z" fill="black"/>
<path d="M77.6511 1.45183L82.115 9.51153H87.3046L91.7 1.45183H93.9045V0H87.2772V1.45183H89.1942L85.99 7.327L82.7448 1.45183H85.0726V0H75.4465V1.45183H77.6511Z" fill="black"/>
<path d="M110.724 0C106.273 0 103.905 2.1981 103.905 4.96608C103.905 7.76119 106.178 10 110.751 10C115.324 10 117.57 7.76119 117.57 4.96608C117.57 2.1981 115.187 0 110.724 0ZM110.669 8.49389C109.039 8.46676 108.327 6.67571 108.355 4.91181C108.382 3.08005 109.272 1.47897 110.792 1.50611C112.312 1.53324 113.12 3.16147 113.092 4.99322C113.065 6.71642 112.353 8.52103 110.669 8.49389Z" fill="black"/>
</svg>
