<svg width="19" height="18" viewBox="0 0 19 18" fill="none" xmlns="http://www.w3.org/2000/svg">
<rect x="5.75" y="3.75" width="6.75" height="11.25" fill="white"/>
<path fill-rule="evenodd" clip-rule="evenodd" d="M9.5 18C4.5374 18 0.5 13.9626 0.5 9C0.5 4.0374 4.5374 0 9.5 0C14.4626 0 18.5 4.0374 18.5 9C18.5 13.9626 14.4626 18 9.5 18ZM10.25 13.4976C10.25 13.6011 10.2308 13.6991 10.1925 13.7915C10.1541 13.884 10.1012 13.9639 10.0338 14.0313C9.96626 14.0987 9.88728 14.152 9.79679 14.1912C9.7063 14.2304 9.60737 14.25 9.50001 14.25C9.39571 14.25 9.29755 14.2304 9.20553 14.1912C9.1135 14.152 9.03375 14.0987 8.96627 14.0313C8.89878 13.9639 8.84587 13.884 8.80752 13.7915C8.76918 13.6991 8.75001 13.6011 8.75001 13.4976C8.75001 13.3911 8.76918 13.2923 8.80752 13.2014C8.84587 13.1105 8.89878 13.0313 8.96627 12.9639C9.03375 12.8965 9.1135 12.844 9.20553 12.8064C9.29755 12.7688 9.39571 12.75 9.50001 12.75C9.60737 12.75 9.7063 12.7688 9.79679 12.8064C9.88728 12.844 9.96626 12.8965 10.0338 12.9639C10.1012 13.0313 10.1541 13.1105 10.1925 13.2014C10.2308 13.2923 10.25 13.3911 10.25 13.4976ZM10.25 10.5C10.25 10.9142 9.91422 11.25 9.50001 11.25C9.08579 11.25 8.75001 10.9142 8.75001 10.5V5.25C8.75001 4.83579 9.08579 4.5 9.50001 4.5C9.91422 4.5 10.25 4.83579 10.25 5.25V10.5Z" fill="#162870"/>
</svg>
