<svg width="24" height="24" viewBox="0 0 24 24" fill="none" xmlns="http://www.w3.org/2000/svg">
<path d="M12 5.99997C8.69165 5.99997 5.99998 8.69164 5.99998 12C5.99998 15.3083 8.69165 18 12 18C15.3083 18 18 15.3083 18 12C18 8.69164 15.3083 5.99997 12 5.99997ZM15.0696 8.24118C15.137 8.16612 15.2322 8.12179 15.3333 8.11778C15.4204 8.1079 15.5325 8.15037 15.6057 8.21995C16.3836 8.9564 16.9124 9.89391 17.1335 10.931C17.1687 11.0965 17.0889 11.265 16.9387 11.3426C16.5718 11.5323 16.136 11.6242 15.7185 11.6242C15.1743 11.6242 14.6587 11.4682 14.3599 11.1694C13.7241 10.534 13.9892 9.43945 15.0696 8.24118ZM8.93043 15.8174C8.86304 15.8924 8.76784 15.9371 8.66676 15.9411C8.66237 15.9415 8.65723 15.9415 8.6521 15.9415C8.55616 15.9415 8.46388 15.9049 8.3943 15.8389C7.61647 15.1025 7.08765 14.165 6.86648 13.1275C6.83132 12.962 6.91116 12.7935 7.06132 12.7159C7.90654 12.2798 9.11209 12.361 9.64017 12.8891C10.2752 13.5245 10.01 14.6191 8.93043 15.8174ZM9.64013 11.1694C9.34131 11.4682 8.82567 11.6243 8.28148 11.6243C7.864 11.6243 7.42895 11.5323 7.06128 11.3427C6.91113 11.265 6.83129 11.0966 6.86645 10.9311C7.08765 9.89395 7.61643 8.95643 8.39427 8.21998C8.4675 8.15041 8.57518 8.1072 8.66673 8.11782C8.7678 8.12186 8.863 8.16616 8.9304 8.24122C10.0108 9.43945 10.2759 10.534 9.64013 11.1694ZM13.5981 17.0006C13.0788 17.1661 12.5412 17.25 12 17.25C11.4588 17.25 10.9211 17.1662 10.4019 17.0006C10.2371 16.9479 10.1294 16.7897 10.1411 16.6172C10.2349 15.2677 11.0339 14.25 12 14.25C12.9661 14.25 13.7651 15.2677 13.8589 16.6172C13.8706 16.7897 13.7629 16.9479 13.5981 17.0006ZM10.5 12C10.5 11.1727 11.1731 10.5 12 10.5C12.8269 10.5 13.5 11.1727 13.5 12C13.5 12.8273 12.8269 13.5 12 13.5C11.1731 13.5 10.5 12.8272 10.5 12ZM13.8589 7.41244C13.7651 8.76156 12.9661 9.77927 12 9.77927C11.0339 9.77927 10.2349 8.76156 10.1411 7.41244C10.1294 7.23997 10.2363 7.08176 10.4011 7.02938C11.4397 6.69757 12.5603 6.69757 13.5989 7.02938C13.7637 7.08176 13.8706 7.23997 13.8589 7.41244ZM17.1335 13.0679C16.9123 14.1053 16.3836 15.0428 15.6057 15.7793C15.5362 15.8452 15.4439 15.8818 15.3479 15.8818C15.3428 15.8818 15.3377 15.8818 15.3333 15.8815C15.2322 15.8774 15.137 15.8331 15.0696 15.7581C13.9893 14.5598 13.7241 13.4649 14.3599 12.8295C14.8879 12.3011 16.0928 12.2208 16.9387 12.6563C17.0889 12.7339 17.1687 12.9023 17.1335 13.0679Z" fill="#45525B"/>
<path d="M12 3C7.0371 3 3 7.03748 3 12C3 16.9625 7.0371 21 12 21C16.9629 21 21 16.9625 21 12C21 7.03748 16.9629 3 12 3ZM12 18.75C8.27783 18.75 5.25 15.7218 5.25 12C5.25 8.27818 8.27783 5.25 12 5.25C15.7222 5.25 18.75 8.27818 18.75 12C18.75 15.7218 15.7222 18.75 12 18.75Z" fill="#45525B"/>
</svg>
